<mxfile host="app.diagrams.net" agent="Mozilla/5.0 (Windows NT 10.0; Win64; x64) AppleWebKit/537.36 (KHTML, like Gecko) Chrome/128.0.0.0 Safari/537.36" version="24.7.13">
  <diagram name="Página-1" id="nzDrDzXbF5Iy9YIPnIax">
    <mxGraphModel dx="840" dy="452" grid="1" gridSize="10" guides="1" tooltips="1" connect="1" arrows="1" fold="1" page="1" pageScale="1" pageWidth="827" pageHeight="1169" math="0" shadow="0">
      <root>
        <mxCell id="0" />
        <mxCell id="1" parent="0" />
        <mxCell id="0i0pU9Rxsa2nbH2X6kDl-28" style="edgeStyle=orthogonalEdgeStyle;rounded=0;orthogonalLoop=1;jettySize=auto;html=1;entryX=0.5;entryY=0;entryDx=0;entryDy=0;" edge="1" parent="1" source="0i0pU9Rxsa2nbH2X6kDl-1" target="0i0pU9Rxsa2nbH2X6kDl-3">
          <mxGeometry relative="1" as="geometry" />
        </mxCell>
        <mxCell id="0i0pU9Rxsa2nbH2X6kDl-1" value="Cliente liga" style="rounded=1;whiteSpace=wrap;html=1;fontStyle=1" vertex="1" parent="1">
          <mxGeometry x="352.5" y="60" width="150" height="30" as="geometry" />
        </mxCell>
        <mxCell id="0i0pU9Rxsa2nbH2X6kDl-4" style="edgeStyle=orthogonalEdgeStyle;rounded=0;orthogonalLoop=1;jettySize=auto;html=1;" edge="1" parent="1" source="0i0pU9Rxsa2nbH2X6kDl-3" target="0i0pU9Rxsa2nbH2X6kDl-5">
          <mxGeometry relative="1" as="geometry">
            <mxPoint x="427.5" y="150" as="targetPoint" />
          </mxGeometry>
        </mxCell>
        <mxCell id="0i0pU9Rxsa2nbH2X6kDl-3" value="Sistema capta a localização do cliente&amp;nbsp;" style="rounded=1;whiteSpace=wrap;html=1;" vertex="1" parent="1">
          <mxGeometry x="365" y="130" width="125" height="40" as="geometry" />
        </mxCell>
        <mxCell id="0i0pU9Rxsa2nbH2X6kDl-6" style="edgeStyle=orthogonalEdgeStyle;rounded=0;orthogonalLoop=1;jettySize=auto;html=1;" edge="1" parent="1" source="0i0pU9Rxsa2nbH2X6kDl-5" target="0i0pU9Rxsa2nbH2X6kDl-7">
          <mxGeometry relative="1" as="geometry">
            <mxPoint x="530" y="180" as="targetPoint" />
          </mxGeometry>
        </mxCell>
        <mxCell id="0i0pU9Rxsa2nbH2X6kDl-27" style="edgeStyle=orthogonalEdgeStyle;rounded=0;orthogonalLoop=1;jettySize=auto;html=1;entryX=0.5;entryY=0;entryDx=0;entryDy=0;" edge="1" parent="1" source="0i0pU9Rxsa2nbH2X6kDl-5" target="0i0pU9Rxsa2nbH2X6kDl-10">
          <mxGeometry relative="1" as="geometry" />
        </mxCell>
        <mxCell id="0i0pU9Rxsa2nbH2X6kDl-5" value="Encontra a franquia mais próxima" style="rounded=1;whiteSpace=wrap;html=1;" vertex="1" parent="1">
          <mxGeometry x="367.5" y="200" width="120" height="40" as="geometry" />
        </mxCell>
        <mxCell id="0i0pU9Rxsa2nbH2X6kDl-7" value="Recebe o endereço diretamente do cliente caso necessite de complementos" style="rounded=0;whiteSpace=wrap;html=1;" vertex="1" parent="1">
          <mxGeometry x="520" y="182.5" width="160" height="75" as="geometry" />
        </mxCell>
        <mxCell id="0i0pU9Rxsa2nbH2X6kDl-8" style="edgeStyle=orthogonalEdgeStyle;rounded=0;orthogonalLoop=1;jettySize=auto;html=1;exitX=0.5;exitY=1;exitDx=0;exitDy=0;" edge="1" parent="1" source="0i0pU9Rxsa2nbH2X6kDl-7" target="0i0pU9Rxsa2nbH2X6kDl-7">
          <mxGeometry relative="1" as="geometry" />
        </mxCell>
        <mxCell id="0i0pU9Rxsa2nbH2X6kDl-11" style="edgeStyle=orthogonalEdgeStyle;rounded=0;orthogonalLoop=1;jettySize=auto;html=1;" edge="1" parent="1" source="0i0pU9Rxsa2nbH2X6kDl-10" target="0i0pU9Rxsa2nbH2X6kDl-12">
          <mxGeometry relative="1" as="geometry">
            <mxPoint x="427.5" y="320" as="targetPoint" />
          </mxGeometry>
        </mxCell>
        <mxCell id="0i0pU9Rxsa2nbH2X6kDl-10" value="Capta o pedido e o envia para a franquia mais próxima" style="rounded=1;whiteSpace=wrap;html=1;" vertex="1" parent="1">
          <mxGeometry x="367.5" y="270" width="120" height="60" as="geometry" />
        </mxCell>
        <mxCell id="0i0pU9Rxsa2nbH2X6kDl-24" style="edgeStyle=orthogonalEdgeStyle;rounded=0;orthogonalLoop=1;jettySize=auto;html=1;entryX=0.5;entryY=0;entryDx=0;entryDy=0;" edge="1" parent="1" source="0i0pU9Rxsa2nbH2X6kDl-12" target="0i0pU9Rxsa2nbH2X6kDl-18">
          <mxGeometry relative="1" as="geometry" />
        </mxCell>
        <mxCell id="0i0pU9Rxsa2nbH2X6kDl-12" value="Chegada do pedido" style="rounded=1;whiteSpace=wrap;html=1;" vertex="1" parent="1">
          <mxGeometry x="367.5" y="360" width="120" height="60" as="geometry" />
        </mxCell>
        <mxCell id="0i0pU9Rxsa2nbH2X6kDl-26" style="edgeStyle=orthogonalEdgeStyle;rounded=0;orthogonalLoop=1;jettySize=auto;html=1;" edge="1" parent="1" source="0i0pU9Rxsa2nbH2X6kDl-18" target="0i0pU9Rxsa2nbH2X6kDl-20">
          <mxGeometry relative="1" as="geometry" />
        </mxCell>
        <mxCell id="0i0pU9Rxsa2nbH2X6kDl-18" value="Processamento do pedido em 15 minutos" style="rounded=1;whiteSpace=wrap;html=1;" vertex="1" parent="1">
          <mxGeometry x="367.5" y="460" width="120" height="60" as="geometry" />
        </mxCell>
        <mxCell id="0i0pU9Rxsa2nbH2X6kDl-20" value="Executar" style="rounded=1;whiteSpace=wrap;html=1;fontStyle=1" vertex="1" parent="1">
          <mxGeometry x="367.5" y="550" width="120" height="60" as="geometry" />
        </mxCell>
        <mxCell id="0i0pU9Rxsa2nbH2X6kDl-29" value="" style="shape=waypoint;sketch=0;fillStyle=solid;size=6;pointerEvents=1;points=[];fillColor=none;resizable=0;rotatable=0;perimeter=centerPerimeter;snapToPoint=1;fontStyle=1;verticalAlign=middle;fontSize=20;labelBackgroundColor=none;" vertex="1" parent="1">
          <mxGeometry x="414" y="20" width="20" height="20" as="geometry" />
        </mxCell>
      </root>
    </mxGraphModel>
  </diagram>
</mxfile>
